<?xml version="1.0" standalone="no"?><!DOCTYPE svg PUBLIC "-//W3C//DTD SVG 1.1//EN" "http://www.w3.org/Graphics/SVG/1.1/DTD/svg11.dtd"><svg t="1521078699257" class="icon" style="" viewBox="0 0 1024 1024" version="1.1" xmlns="http://www.w3.org/2000/svg" p-id="3040" xmlns:xlink="http://www.w3.org/1999/xlink" width="200" height="200"><defs><style type="text/css"></style></defs><path d="M716.8 230.4h-51.2c0-56.32-69.12-102.4-153.6-102.4s-153.6 46.08-153.6 102.4h-51.2c-56.32 0-102.4 46.08-102.4 102.4v512c0 56.32 46.08 102.4 102.4 102.4h409.6c56.32 0 102.4-46.08 102.4-102.4V332.8c0-56.32-46.08-102.4-102.4-102.4z m-204.8-51.2c56.32 0 102.4 15.36 102.4 51.2h-204.8c0-35.84 46.08-51.2 102.4-51.2z m256 665.6c0 28.16-23.04 51.2-51.2 51.2H307.2c-28.16 0-51.2-23.04-51.2-51.2v-51.2h512v51.2z m0-102.4H256V332.8c0-28.16 23.04-51.2 51.2-51.2h51.2v153.6h51.2v-153.6h204.8v153.6h51.2v-153.6h51.2c28.16 0 51.2 23.04 51.2 51.2v409.6z" p-id="3041"></path></svg>